<svg width="22" height="22" viewBox="0 0 22 22" fill="none" xmlns="http://www.w3.org/2000/svg">
<rect width="22" height="22" fill="#F5F5F5"/>
<g clip-path="url(#clip0_0_1)">
<rect width="1512" height="2050" transform="translate(-680 -527)" fill="#F7F6FB"/>
<rect x="-679" y="-457" width="1510" height="648" fill="#1E1B25"/>
<rect x="-28" y="-17" width="207" height="62" rx="10" fill="#A592F6"/>
<path d="M20.9 13.2C20.6083 13.2 20.3285 13.3159 20.1222 13.5222C19.9159 13.7285 19.8 14.0083 19.8 14.3V18.7C19.8 18.9917 19.6841 19.2715 19.4778 19.4778C19.2715 19.6841 18.9917 19.8 18.7 19.8H3.3C3.00826 19.8 2.72847 19.6841 2.52218 19.4778C2.31589 19.2715 2.2 18.9917 2.2 18.7V14.3C2.2 14.0083 2.08411 13.7285 1.87782 13.5222C1.67153 13.3159 1.39174 13.2 1.1 13.2C0.808262 13.2 0.528473 13.3159 0.322182 13.5222C0.115892 13.7285 0 14.0083 0 14.3V18.7C0 19.5752 0.347678 20.4146 0.966548 21.0335C1.58542 21.6523 2.42479 22 3.3 22H18.7C19.5752 22 20.4146 21.6523 21.0335 21.0335C21.6523 20.4146 22 19.5752 22 18.7V14.3C22 14.0083 21.8841 13.7285 21.6778 13.5222C21.4715 13.3159 21.1917 13.2 20.9 13.2ZM10.219 15.081C10.3236 15.1811 10.447 15.2596 10.582 15.312C10.7137 15.3702 10.856 15.4003 11 15.4003C11.144 15.4003 11.2863 15.3702 11.418 15.312C11.553 15.2596 11.6764 15.1811 11.781 15.081L16.181 10.681C16.3881 10.4739 16.5045 10.1929 16.5045 9.9C16.5045 9.60707 16.3881 9.32613 16.181 9.119C15.9739 8.91187 15.6929 8.7955 15.4 8.7955C15.1071 8.7955 14.8261 8.91187 14.619 9.119L12.1 11.649V1.1C12.1 0.808262 11.9841 0.528473 11.7778 0.322182C11.5715 0.115892 11.2917 0 11 0C10.7083 0 10.4285 0.115892 10.2222 0.322182C10.0159 0.528473 9.9 0.808262 9.9 1.1V11.649L7.381 9.119C7.27844 9.01644 7.15668 8.93508 7.02267 8.87957C6.88867 8.82407 6.74505 8.7955 6.6 8.7955C6.45496 8.7955 6.31133 8.82407 6.17733 8.87957C6.04332 8.93508 5.92156 9.01644 5.819 9.119C5.71644 9.22156 5.63508 9.34332 5.57957 9.47733C5.52407 9.61133 5.4955 9.75496 5.4955 9.9C5.4955 10.045 5.52407 10.1887 5.57957 10.3227C5.63508 10.4567 5.71644 10.5784 5.819 10.681L10.219 15.081Z" fill="#1E1B25"/>
</g>
<defs>
<clipPath id="clip0_0_1">
<rect width="1512" height="2050" fill="white" transform="translate(-680 -527)"/>
</clipPath>
</defs>
</svg>
