<svg width="40" height="39" viewBox="0 0 40 39" fill="none" xmlns="http://www.w3.org/2000/svg">
<g id="Github">
<path id="Icon" d="M15.125 30.875C7 33.3125 7 26.8125 3.75 26M26.5 35.75V29.4612C26.561 28.6864 26.4563 27.9074 26.1929 27.1762C25.9295 26.4449 25.5135 25.778 24.9725 25.22C30.075 24.6512 35.4375 22.7175 35.4375 13.845C35.4371 11.5762 34.5644 9.39444 33 7.75124C33.7408 5.76631 33.6884 3.57231 32.8537 1.62499C32.8537 1.62499 30.9363 1.05624 26.5 4.02999C22.7755 3.02058 18.8495 3.02058 15.125 4.02999C10.6887 1.05624 8.77125 1.62499 8.77125 1.62499C7.93661 3.57231 7.88423 5.76631 8.625 7.75124C7.04896 9.40663 6.17535 11.6081 6.1875 13.8937C6.1875 22.7012 11.55 24.635 16.6525 25.2687C16.1179 25.8212 15.7056 26.48 15.4424 27.2024C15.1792 27.9247 15.0711 28.6943 15.125 29.4612V35.75" stroke="white" stroke-width="3" stroke-linecap="round" stroke-linejoin="round"/>
</g>
</svg>
