<svg width="37" height="36" viewBox="0 0 37 36" fill="none" xmlns="http://www.w3.org/2000/svg">
<g id="Linkedin">
<g id="Icon">
<path d="M24.5 12C26.8869 12 29.1761 12.9482 30.864 14.636C32.5518 16.3239 33.5 18.6131 33.5 21V31.5H27.5V21C27.5 20.2044 27.1839 19.4413 26.6213 18.8787C26.0587 18.3161 25.2956 18 24.5 18C23.7044 18 22.9413 18.3161 22.3787 18.8787C21.8161 19.4413 21.5 20.2044 21.5 21V31.5H15.5V21C15.5 18.6131 16.4482 16.3239 18.136 14.636C19.8239 12.9482 22.1131 12 24.5 12Z" fill="white"/>
<path d="M9.5 13.5H3.5V31.5H9.5V13.5Z" fill="white"/>
<path d="M6.5 9C8.15685 9 9.5 7.65685 9.5 6C9.5 4.34315 8.15685 3 6.5 3C4.84315 3 3.5 4.34315 3.5 6C3.5 7.65685 4.84315 9 6.5 9Z" fill="white"/>
</g>
</g>
</svg>
