<svg width="234" height="27" viewBox="0 0 234 27" fill="none" xmlns="http://www.w3.org/2000/svg">
<path d="M0.199219 0.988338H8.51367C10.2832 0.988338 11.8184 1.27545 13.1191 1.84967C14.4199 2.42389 15.4219 3.27349 16.125 4.39849C16.8398 5.51178 17.1973 6.88287 17.1973 8.51178C17.1973 9.71881 16.9395 10.8145 16.4238 11.7989C15.9199 12.7833 15.2227 13.6094 14.332 14.2774C13.4414 14.9337 12.4102 15.3848 11.2383 15.6309L10.4824 15.9122H1.60547L1.57031 14.0665H9.00586C10.3418 14.0665 11.4551 13.8087 12.3457 13.293C13.2363 12.7774 13.9043 12.0977 14.3496 11.254C14.8066 10.3985 15.0352 9.48443 15.0352 8.51178C15.0352 7.35162 14.7832 6.34967 14.2793 5.50592C13.7871 4.65045 13.0547 3.9942 12.082 3.53717C11.1094 3.08014 9.91992 2.85162 8.51367 2.85162H2.36133V26.5821H0.199219V0.988338ZM16.002 26.5821L9.375 15.1387L11.6953 15.1212L18.3047 26.3536V26.5821H16.002ZM31.541 2.51764L22.6816 26.5821H20.4316L30.0996 0.988338H31.6641L31.541 2.51764ZM39.5918 26.5821L30.7148 2.51764L30.5918 0.988338H32.1562L41.8418 26.5821H39.5918ZM38.0098 17.5469V19.4102H24.4219V17.5469H38.0098ZM61.3711 18.6016H63.5332C63.3574 20.3243 62.8828 21.8126 62.1094 23.0665C61.3359 24.3087 60.2812 25.2637 58.9453 25.9317C57.6094 26.5997 55.998 26.9337 54.1113 26.9337C52.6582 26.9337 51.3398 26.6583 50.1562 26.1075C48.9844 25.5567 47.9766 24.7774 47.1328 23.7696C46.2891 22.7501 45.6387 21.5313 45.1816 20.1133C44.7246 18.6954 44.4961 17.1192 44.4961 15.3848V12.1856C44.4961 10.4512 44.7246 8.88092 45.1816 7.47467C45.6387 6.0567 46.2949 4.83795 47.1504 3.81842C48.0059 2.79889 49.0312 2.01373 50.2266 1.46295C51.4219 0.912167 52.7695 0.636776 54.2695 0.636776C56.0859 0.636776 57.6562 0.97076 58.9805 1.63873C60.3047 2.29498 61.3477 3.2442 62.1094 4.48639C62.8828 5.72857 63.3574 7.22857 63.5332 8.98639H61.3711C61.207 7.60357 60.8438 6.4317 60.2812 5.47076C59.7188 4.50982 58.9395 3.7774 57.9434 3.27349C56.959 2.75787 55.7344 2.50006 54.2695 2.50006C53.0742 2.50006 52.0078 2.72857 51.0703 3.1856C50.1328 3.64264 49.3359 4.29889 48.6797 5.15435C48.0234 5.9981 47.5195 7.01178 47.168 8.19537C46.8281 9.37896 46.6582 10.6973 46.6582 12.1504V15.3848C46.6582 16.7911 46.8223 18.086 47.1504 19.2696C47.4785 20.4532 47.959 21.4786 48.5918 22.3458C49.2363 23.2129 50.0215 23.8868 50.9473 24.3672C51.873 24.8477 52.9277 25.0879 54.1113 25.0879C55.623 25.0879 56.8828 24.8477 57.8906 24.3672C58.9102 23.8751 59.7012 23.1485 60.2637 22.1876C60.8262 21.2266 61.1953 20.0313 61.3711 18.6016ZM86.0156 12.4669V14.3126H70.459V12.4669H86.0156ZM70.9688 0.988338V26.5821H68.8066V0.988338H70.9688ZM87.7559 0.988338V26.5821H85.5938V0.988338H87.7559ZM110.203 24.7364V26.5821H95.8066V24.7364H110.203ZM96.457 0.988338V26.5821H94.2949V0.988338H96.457ZM108.41 12.4669V14.3126H95.8066V12.4669H108.41ZM110.115 0.988338V2.85162H95.8066V0.988338H110.115ZM129.592 24.7364V26.5821H116.32V24.7364H129.592ZM116.953 0.988338V26.5821H114.791V0.988338H116.953ZM155.52 19.9903C155.52 19.4629 155.438 18.9942 155.273 18.584C155.121 18.1739 154.846 17.7989 154.447 17.459C154.049 17.1192 153.486 16.7911 152.76 16.4747C152.045 16.1465 151.131 15.8126 150.018 15.4727C148.799 15.0977 147.674 14.6817 146.643 14.2247C145.623 13.7559 144.732 13.2169 143.971 12.6075C143.209 11.9864 142.617 11.2774 142.195 10.4805C141.773 9.67193 141.562 8.74029 141.562 7.6856C141.562 6.64264 141.779 5.69342 142.213 4.83795C142.658 3.98248 143.285 3.2442 144.094 2.6231C144.914 1.99029 145.881 1.50396 146.994 1.16412C148.107 0.812557 149.338 0.636776 150.686 0.636776C152.584 0.636776 154.219 0.988338 155.59 1.69146C156.973 2.39459 158.033 3.33795 158.771 4.52154C159.521 5.70514 159.896 7.01178 159.896 8.44146H155.52C155.52 7.59771 155.338 6.85357 154.975 6.20904C154.623 5.55279 154.084 5.03717 153.357 4.66217C152.643 4.28717 151.734 4.09967 150.633 4.09967C149.59 4.09967 148.723 4.25787 148.031 4.57428C147.34 4.89068 146.824 5.31842 146.484 5.85748C146.145 6.39654 145.975 7.00592 145.975 7.6856C145.975 8.16607 146.086 8.60553 146.309 9.00396C146.531 9.39068 146.871 9.75396 147.328 10.0938C147.785 10.4219 148.359 10.7325 149.051 11.0254C149.742 11.3184 150.557 11.5997 151.494 11.8692C152.912 12.2911 154.148 12.7598 155.203 13.2754C156.258 13.7794 157.137 14.3536 157.84 14.9981C158.543 15.6426 159.07 16.3751 159.422 17.1954C159.773 18.004 159.949 18.9239 159.949 19.9551C159.949 21.0333 159.732 22.0059 159.299 22.8731C158.865 23.7286 158.244 24.461 157.436 25.0704C156.639 25.668 155.678 26.1309 154.553 26.459C153.439 26.7754 152.197 26.9337 150.826 26.9337C149.596 26.9337 148.383 26.7696 147.188 26.4415C146.004 26.1133 144.926 25.6153 143.953 24.9473C142.98 24.2676 142.207 23.4239 141.633 22.4161C141.059 21.3965 140.771 20.2071 140.771 18.8477H145.184C145.184 19.6797 145.324 20.3887 145.605 20.9747C145.898 21.5606 146.303 22.0411 146.818 22.4161C147.334 22.7794 147.932 23.0489 148.611 23.2247C149.303 23.4004 150.041 23.4883 150.826 23.4883C151.857 23.4883 152.719 23.3419 153.41 23.0489C154.113 22.7559 154.641 22.3458 154.992 21.8184C155.344 21.2911 155.52 20.6817 155.52 19.9903ZM184.26 13.0821V14.4883C184.26 16.4219 184.008 18.1563 183.504 19.6915C183 21.2266 182.279 22.5333 181.342 23.6114C180.416 24.6895 179.303 25.5157 178.002 26.0899C176.701 26.6524 175.26 26.9337 173.678 26.9337C172.107 26.9337 170.672 26.6524 169.371 26.0899C168.082 25.5157 166.963 24.6895 166.014 23.6114C165.064 22.5333 164.326 21.2266 163.799 19.6915C163.283 18.1563 163.025 16.4219 163.025 14.4883V13.0821C163.025 11.1485 163.283 9.41998 163.799 7.89654C164.314 6.36139 165.041 5.05474 165.979 3.97662C166.928 2.88678 168.047 2.0606 169.336 1.4981C170.637 0.923885 172.072 0.636776 173.643 0.636776C175.225 0.636776 176.666 0.923885 177.967 1.4981C179.268 2.0606 180.387 2.88678 181.324 3.97662C182.262 5.05474 182.982 6.36139 183.486 7.89654C184.002 9.41998 184.26 11.1485 184.26 13.0821ZM179.848 14.4883V13.0469C179.848 11.6172 179.707 10.3575 179.426 9.26764C179.156 8.16607 178.752 7.24615 178.213 6.50787C177.686 5.75787 177.035 5.19537 176.262 4.82037C175.488 4.43365 174.615 4.24029 173.643 4.24029C172.67 4.24029 171.803 4.43365 171.041 4.82037C170.279 5.19537 169.629 5.75787 169.09 6.50787C168.562 7.24615 168.158 8.16607 167.877 9.26764C167.596 10.3575 167.455 11.6172 167.455 13.0469V14.4883C167.455 15.918 167.596 17.1837 167.877 18.2852C168.158 19.3868 168.568 20.3184 169.107 21.0801C169.658 21.8301 170.314 22.3985 171.076 22.7852C171.838 23.1602 172.705 23.3477 173.678 23.3477C174.662 23.3477 175.535 23.1602 176.297 22.7852C177.059 22.3985 177.703 21.8301 178.23 21.0801C178.758 20.3184 179.156 19.3868 179.426 18.2852C179.707 17.1837 179.848 15.918 179.848 14.4883ZM209.08 13.0821V14.4883C209.08 16.4219 208.828 18.1563 208.324 19.6915C207.82 21.2266 207.1 22.5333 206.162 23.6114C205.236 24.6895 204.123 25.5157 202.822 26.0899C201.521 26.6524 200.08 26.9337 198.498 26.9337C196.928 26.9337 195.492 26.6524 194.191 26.0899C192.902 25.5157 191.783 24.6895 190.834 23.6114C189.885 22.5333 189.146 21.2266 188.619 19.6915C188.104 18.1563 187.846 16.4219 187.846 14.4883V13.0821C187.846 11.1485 188.104 9.41998 188.619 7.89654C189.135 6.36139 189.861 5.05474 190.799 3.97662C191.748 2.88678 192.867 2.0606 194.156 1.4981C195.457 0.923885 196.893 0.636776 198.463 0.636776C200.045 0.636776 201.486 0.923885 202.787 1.4981C204.088 2.0606 205.207 2.88678 206.145 3.97662C207.082 5.05474 207.803 6.36139 208.307 7.89654C208.822 9.41998 209.08 11.1485 209.08 13.0821ZM204.668 14.4883V13.0469C204.668 11.6172 204.527 10.3575 204.246 9.26764C203.977 8.16607 203.572 7.24615 203.033 6.50787C202.506 5.75787 201.855 5.19537 201.082 4.82037C200.309 4.43365 199.436 4.24029 198.463 4.24029C197.49 4.24029 196.623 4.43365 195.861 4.82037C195.1 5.19537 194.449 5.75787 193.91 6.50787C193.383 7.24615 192.979 8.16607 192.697 9.26764C192.416 10.3575 192.275 11.6172 192.275 13.0469V14.4883C192.275 15.918 192.416 17.1837 192.697 18.2852C192.979 19.3868 193.389 20.3184 193.928 21.0801C194.479 21.8301 195.135 22.3985 195.896 22.7852C196.658 23.1602 197.525 23.3477 198.498 23.3477C199.482 23.3477 200.355 23.1602 201.117 22.7852C201.879 22.3985 202.523 21.8301 203.051 21.0801C203.578 20.3184 203.977 19.3868 204.246 18.2852C204.527 17.1837 204.668 15.918 204.668 14.4883ZM233.795 0.988338V26.5821H229.383L217.904 8.2481V26.5821H213.492V0.988338H217.904L229.418 19.3575V0.988338H233.795Z" fill="white"/>
</svg>
