<svg width="42" height="27" viewBox="0 0 42 27" fill="none" xmlns="http://www.w3.org/2000/svg">
<path d="M0.285156 0.40625H9.83008C11.7871 0.40625 13.4688 0.699219 14.875 1.28516C16.293 1.87109 17.3828 2.73828 18.1445 3.88672C18.9062 5.03516 19.2871 6.44727 19.2871 8.12305C19.2871 9.49414 19.0527 10.6719 18.584 11.6562C18.127 12.6289 17.4766 13.4434 16.6328 14.0996C15.8008 14.7441 14.8223 15.2598 13.6973 15.6465L12.0273 16.5254H3.73047L3.69531 12.4121H9.86523C10.791 12.4121 11.5586 12.248 12.168 11.9199C12.7773 11.5918 13.2344 11.1348 13.5391 10.5488C13.8555 9.96289 14.0137 9.2832 14.0137 8.50977C14.0137 7.68945 13.8613 6.98047 13.5566 6.38281C13.252 5.78516 12.7891 5.32812 12.168 5.01172C11.5469 4.69531 10.7676 4.53711 9.83008 4.53711H5.55859V26H0.285156V0.40625ZM14.5938 26L8.75781 14.5918L14.3301 14.5566L20.2363 25.7539V26H14.5938ZM36.6719 19.3027C36.6719 18.8457 36.6016 18.4355 36.4609 18.0723C36.332 17.6973 36.0859 17.3574 35.7227 17.0527C35.3594 16.7363 34.8496 16.4258 34.1934 16.1211C33.5371 15.8164 32.6875 15.5 31.6445 15.1719C30.4844 14.7969 29.3828 14.375 28.3398 13.9062C27.3086 13.4375 26.3945 12.8926 25.5977 12.2715C24.8125 11.6387 24.1914 10.9062 23.7344 10.0742C23.2891 9.24219 23.0664 8.27539 23.0664 7.17383C23.0664 6.10742 23.3008 5.14062 23.7695 4.27344C24.2383 3.39453 24.8945 2.64453 25.7383 2.02344C26.582 1.39062 27.5781 0.904297 28.7266 0.564453C29.8867 0.224609 31.1582 0.0546875 32.541 0.0546875C34.4277 0.0546875 36.0742 0.394531 37.4805 1.07422C38.8867 1.75391 39.9766 2.68555 40.75 3.86914C41.5352 5.05273 41.9277 6.40625 41.9277 7.92969H36.6895C36.6895 7.17969 36.5312 6.52344 36.2148 5.96094C35.9102 5.38672 35.4414 4.93555 34.8086 4.60742C34.1875 4.2793 33.4023 4.11523 32.4531 4.11523C31.5391 4.11523 30.7773 4.25586 30.168 4.53711C29.5586 4.80664 29.1016 5.17578 28.7969 5.64453C28.4922 6.10156 28.3398 6.61719 28.3398 7.19141C28.3398 7.625 28.4453 8.01758 28.6562 8.36914C28.8789 8.7207 29.207 9.04883 29.6406 9.35352C30.0742 9.6582 30.6074 9.94531 31.2402 10.2148C31.873 10.4844 32.6055 10.748 33.4375 11.0059C34.832 11.4277 36.0566 11.9023 37.1113 12.4297C38.1777 12.957 39.0684 13.5488 39.7832 14.2051C40.498 14.8613 41.0371 15.6055 41.4004 16.4375C41.7637 17.2695 41.9453 18.2129 41.9453 19.2676C41.9453 20.3809 41.7285 21.377 41.2949 22.2559C40.8613 23.1348 40.2344 23.8789 39.4141 24.4883C38.5938 25.0977 37.6152 25.5605 36.4785 25.877C35.3418 26.1934 34.0703 26.3516 32.6641 26.3516C31.3984 26.3516 30.1504 26.1875 28.9199 25.8594C27.6895 25.5195 26.5703 25.0098 25.5625 24.3301C24.5664 23.6504 23.7695 22.7832 23.1719 21.7285C22.5742 20.6738 22.2754 19.4258 22.2754 17.9844H27.5664C27.5664 18.7812 27.6895 19.4551 27.9355 20.0059C28.1816 20.5566 28.5273 21.002 28.9727 21.3418C29.4297 21.6816 29.9688 21.9277 30.5898 22.0801C31.2227 22.2324 31.9141 22.3086 32.6641 22.3086C33.5781 22.3086 34.3281 22.1797 34.9141 21.9219C35.5117 21.6641 35.9512 21.3066 36.2324 20.8496C36.5254 20.3926 36.6719 19.877 36.6719 19.3027Z" fill="#8774F2"/>
</svg>
